<?xml version="1.0" standalone="no"?><!DOCTYPE svg PUBLIC "-//W3C//DTD SVG 1.1//EN" "http://www.w3.org/Graphics/SVG/1.1/DTD/svg11.dtd"><svg t="1758960266197" class="icon" viewBox="0 0 1024 1024" version="1.1" xmlns="http://www.w3.org/2000/svg" p-id="8147" xmlns:xlink="http://www.w3.org/1999/xlink" width="200" height="200"><path d="M765.8 466.8c0-143.2-124-257.5-270.5-241.3C385 237.7 295.7 325.7 282 435.8c-12.7 102.3 38.3 194 118.7 240.9 9.7 5.7 15.8 16.1 15.8 27.3v66.7c0 15.4 12.5 27.9 27.9 27.9h157.1c15.4 0 27.9-12.5 27.9-27.9V704c0-11.2 5.9-21.6 15.5-27.2 72.3-42 120.9-120.3 120.9-210z" fill="#E88C1B" p-id="8148"></path><path d="M549.7 770.7V704c0-11.2 5.9-21.6 15.5-27.2 72.3-42.1 120.9-120.4 120.9-210 0-120.4-87.6-220.3-202.6-239.5-104.8 17-188.3 102.3-201.5 208.4-12.7 102.3 38.3 194 118.7 240.9 9.7 5.7 15.8 16.1 15.8 27.3v66.7c0 15.4 12.5 27.9 27.9 27.9h77.4c15.4 0.1 27.9-12.4 27.9-27.8z" fill="#FADE2F" p-id="8149"></path><path d="M682.7 427.5C666 325.2 585.6 244.4 483.5 227.3c-102 16.5-183.7 97.9-200.1 200.2h399.3z" fill="#FBC831" p-id="8150"></path><path d="M578.5 450.6h-36.3c-5.8 0-11.2-2.7-14.6-7.4l-63.4-86.1c-3.9-5.3-12.4-2.6-12.4 4.1v123.6c0 8.5 6.9 15.4 15.4 15.4h36.3c5.8 0 11.2 2.7 14.6 7.4l63.4 86.1c3.9 5.3 12.4 2.6 12.4-4.1V466c0.1-8.5-6.8-15.4-15.4-15.4z" fill="#FFF3E1" p-id="8151"></path><path d="M522.9 958.3c50.7 0 92.7-37.8 99.2-86.7 0.9-7.1-4.7-13.3-11.8-13.3H435.6c-7.1 0-12.8 6.3-11.8 13.3 6.5 48.9 48.4 86.7 99.1 86.7z" fill="#E74B26" p-id="8152"></path><path d="M423.8 871.6c5.1 38.2 31.8 69.6 67.4 81.5 35.6-11.9 62.3-43.3 67.4-81.5 0.9-7-4.7-13.3-11.8-13.3H435.6c-7.1 0-12.8 6.2-11.8 13.3z" fill="#FB6F22" p-id="8153"></path><path d="M435.1 905.7h112.2c5.7-10.4 9.7-21.8 11.3-34.1 0.9-7-4.7-13.3-11.8-13.3H435.6c-7.1 0-12.8 6.3-11.8 13.3 1.6 12.2 5.6 23.6 11.3 34.1z" fill="#FE5E21" p-id="8154"></path></svg>