<?xml version="1.0" standalone="no"?><!DOCTYPE svg PUBLIC "-//W3C//DTD SVG 1.1//EN" "http://www.w3.org/Graphics/SVG/1.1/DTD/svg11.dtd"><svg t="1763286687304" class="icon" viewBox="0 0 1619 1024" version="1.1" xmlns="http://www.w3.org/2000/svg" p-id="1721" xmlns:xlink="http://www.w3.org/1999/xlink" width="316.2109375" height="200"><path d="M1433.3245 1005.787a174.278 174.278 0 0 1-5.007-32.456c-8.632-44.972-65.43-66.38-66.724-112.215-0.432-15.882 6.387-31.851 2.935-47.216-6.388-28.744-41.002-34.527-59.042-56.366s-17.264-55.848-33.147-78.982-44.972-29.78-68.537-43.16a136.902 136.902 0 0 1-58.179-75.528l-201.727-74.666-76.565-78.205-249.806 54.381-17.868 542.255 833.84 2.417z" fill="#C1E1C4" p-id="1722"></path><path d="M616.8345 191.369v-58.352h-76.306v58.18h-76.305v-58.18h-76.22v58.18h-76.306v-58.18h-76.306v58.18h-76.305v-58.18H82.7805V316.79h0.604v694.953h533.71l0.085-614.504V191.37h-0.345z" fill="#0acae4" p-id="1723"></path><path d="M270.9555 1011.743V871.82a80.19 80.19 0 0 1 79.068-80.794 80.19 80.19 0 0 1 79.068 80.794v139.577" fill="#F5E455" p-id="1724"></path><path d="M360.0365 792.407a105.913 105.913 0 0 1-34.528 57.66 81.83 81.83 0 0 1-57.92 19.163l31.766-61.977zM11.3945 948.989c46.526-15.71 27.795-28.399 62.754-64.48a67.501 67.501 0 0 0 14.674-20.199c8.632-20.975 0-46.44 4.92-69.055 7.165-34.527 42.383-53.259 52.223-87.096 8.632-30.297-5.006-62.408-17.868-90.72-16.573-36.254-32.542-77.688-23.133-116.876 8.632-35.132 35.822-62.927 37.98-99.267 1.899-32.887-17.264-62.754-20.026-95.641-1.64-22.616 5.093-44.886 7.164-67.415C138.1105 154.856 84.1615 71.73 105.3955 0z" fill="#FFFFFF" p-id="1725"></path><path d="M709.9725 869.058l-80.363 54.64-5.179 82.952 53.95-52.223 114.372-70.868 113.25-16.228 85.283 8.719 95.987 5.87 90.634-15.797 61.114-21.58 73.371-48.856 24.515-14.933 33.06-10.013-20.113-43.073-25.723 6.3-10.099 0.432-72.594 46.008-29.348-69.4-64.826 32.283 15.02 76.306-77.774 15.451-5.006-76.565-77.342-2.762-4.834 74.234-72.853-6.905-9.322-70.091-73.112 4.143 5.956 69.4-75.529 18.56-5.783-47.735-81.744 25.291 14.933 46.871 0.518-0.172m1.812-502.117l-77.686 24.515-1.123 60.51 0.691 17.436 96.763-37.722 75.184 11.222 54.64 35.65 58.956 50.582 65.516 33.147 79.068 11.566 58.265-3.28 31.851-11.394v-60.768l-80.967 16.746 7.596-66.552-61.804-14.76-26.759 61.717-70.177-46.698 30.643-70.782-64.307-36.599-39.362 54.813-61.804-20.63 5.697-56.971-71.472-8.2-9.409 56.452" fill="#F4D5E6" p-id="1726"></path><path d="M150.7995 522.315v-56.193c0-29.435 21.58-53.518 47.993-53.518 26.414 0 48.08 24.083 48.08 53.518v56.193h-56.97m112.904 0v-56.193c0-29.435 21.58-53.518 47.994-53.518 26.413 0 48.08 24.083 48.08 53.518v56.193H342.0805m112.733 0v-56.193c0-29.435 21.666-53.518 48.08-53.518 26.413 0 47.993 24.083 47.993 53.518v56.193h-56.798" fill="#F3A8BC" p-id="1727"></path><path d="M158.2225 332.241H55.2445a12.257 12.257 0 0 1 0-24.428h102.978a12.257 12.257 0 1 1 0 24.428z m454.642 0H210.3595a12.257 12.257 0 1 1 0-24.428h402.505a12.257 12.257 0 1 1 0 24.428zM246.8725 534.486h-56.97a12.257 12.257 0 1 1 0-24.428h44.54v-43.936c0-22.789-16.055-41.347-35.822-41.347s-35.65 18.558-35.65 41.347v56.193a12.257 12.257 0 0 1-24.428 0v-56.193c0-36.254 27.017-65.775 60.423-65.775s59.991 29.52 59.991 65.775v56.193a12.171 12.171 0 0 1-12.084 12.171z m152.007 0h-56.798a12.257 12.257 0 1 1 0-24.428h44.54v-43.936c0-22.789-16.054-41.347-35.821-41.347s-35.736 18.558-35.736 41.347v56.193a12.257 12.257 0 0 1-24.515 0v-56.193c0-36.254 27.018-65.775 60.423-65.775s60.423 29.52 60.423 65.775v56.193a12.257 12.257 0 0 1-12.516 12.171zM429.0915 1024a12.344 12.344 0 0 1-12.257-12.257V871.82a66.81 66.81 0 1 0-133.622 0v139.664a12.257 12.257 0 0 1-24.515 0V871.82a91.325 91.325 0 1 1 182.651 0v139.664A12.344 12.344 0 0 1 429.0915 1024z m121.796-489.514h-56.798a12.257 12.257 0 0 1 0-24.428h44.54v-43.936c0-22.789-16.055-41.347-35.736-41.347s-35.822 18.558-35.822 41.347v56.193a12.257 12.257 0 0 1-24.514 0v-56.193c0-36.254 27.104-65.775 60.423-65.775s60.423 29.52 60.423 65.775v56.193a12.257 12.257 0 0 1-12.516 12.171z m66.379 167.113H402.5905a12.257 12.257 0 1 1 0-24.428h214.675a12.257 12.257 0 1 1 0 24.428z m-268.624 0h-43.16a12.257 12.257 0 1 1 0-24.428h43.16a12.257 12.257 0 0 1 0 24.428z m268.624 82.521H473.3725a12.257 12.257 0 1 1 0-24.515h143.894a12.257 12.257 0 0 1 0 24.515z m-448.6 81.485h-74.32a12.257 12.257 0 1 1 0-24.428h74.32a12.257 12.257 0 1 1 0 24.428z" fill="#2c2c2c" p-id="1728"></path><path d="M523.6965 778.596a12.171 12.171 0 0 1-12.17-12.258v-71.472a12.257 12.257 0 1 1 24.427 0v71.472a12.171 12.171 0 0 1-12.257 12.258z m-46.008-86.233a12.257 12.257 0 0 1-12.257-12.257v-51.791a12.257 12.257 0 1 1 24.515 0v51.79a12.257 12.257 0 0 1-12.258 12.258z m92.793 0a12.257 12.257 0 0 1-12.257-12.257v-91.67a12.257 12.257 0 0 1 24.514 0v91.67a12.257 12.257 0 0 1-12.257 12.257z m148.814-112.128a12.257 12.257 0 0 1-12.258-12.257V515.15a12.257 12.257 0 1 1 24.429 0v52.827a12.257 12.257 0 0 1-12.171 12.257z m57.574 0a12.257 12.257 0 0 1-12.257-12.257V515.15a12.257 12.257 0 1 1 24.428 0v52.827a12.257 12.257 0 0 1-12.17 12.257z m69.055 440.312a12.171 12.171 0 0 1-12.084-10.79l-5.18-51.1a12.171 12.171 0 1 1 24.256-2.763l5.87 51.015a12.257 12.257 0 0 1-10.704 13.552z m57.575-1.985a12.171 12.171 0 0 1-12.171-10.963l-5.87-56.02a12.171 12.171 0 1 1 24.256-2.59l5.956 56.107a12.344 12.344 0 0 1-10.876 13.466z m22.443-344.24a10.617 10.617 0 0 1-3.626-0.604 12.085 12.085 0 0 1-8.027-15.278l15.796-50.842a12.171 12.171 0 0 1 15.279-8.114 12.344 12.344 0 0 1 8.114 15.365l-15.883 50.842a12.171 12.171 0 0 1-11.653 8.632z m55.848 16.228a14.243 14.243 0 0 1-3.712-0.517 12.344 12.344 0 0 1-8.027-15.365l15.796-50.842a12.257 12.257 0 1 1 23.392 7.25l-15.796 50.843a12.257 12.257 0 0 1-11.653 8.631z m256.885 277.343a12.085 12.085 0 0 1-11.394-7.769l-17.264-44.972a12.257 12.257 0 0 1 22.788-8.632l17.264 45.059a12.171 12.171 0 0 1-7.078 15.192 11.394 11.394 0 0 1-4.316 1.122z m55.244-18.386a12.171 12.171 0 0 1-11.394-7.769l-17.264-45.058a12.257 12.257 0 0 1 22.788-8.632l17.264 45.058a12.085 12.085 0 0 1-6.906 15.797 11.826 11.826 0 0 1-4.488 0.604z" fill="#2c2c2c" p-id="1729"></path><path d="M614.7635 269.056h48.424v746.14h-48.424z m984.034 429.436c27.795 0 27.795-43.16 0-43.16s-27.795 43.16 0 43.16z" fill="#FFFFFF" p-id="1730"></path><path d="M617.0935 1024H83.3845a12.257 12.257 0 0 1-12.257-12.257v-691.5a11.135 11.135 0 0 1-0.518-3.453V133.017a12.171 12.171 0 0 1 12.17-12.17h76.307a12.257 12.257 0 0 1 12.257 12.17v45.922h51.791v-45.922a12.257 12.257 0 0 1 12.257-12.17h76.306a12.171 12.171 0 0 1 12.171 12.17v45.922h51.791v-45.922a12.171 12.171 0 0 1 12.776-12.17h76.22a12.171 12.171 0 0 1 12.256 12.17v45.922h51.792v-45.922a12.257 12.257 0 0 1 11.825-12.17h76.306a12.257 12.257 0 0 1 12.257 12.17v55.244a18.04 18.04 0 0 1 0 3.108v820.028A12.257 12.257 0 0 1 617.0935 1024zM95.5555 999.485h509.28V194.304a10.962 10.962 0 0 1 0-2.935v-46.094H552.4405v45.921a12.257 12.257 0 0 1-12.257 12.171h-75.96a12.171 12.171 0 0 1-12.171-12.17v-45.922H400.2605v45.921a12.171 12.171 0 0 1-11.825 12.171h-76.738a12.171 12.171 0 0 1-12.257-12.17v-45.922h-51.791v45.921a12.257 12.257 0 0 1-12.258 12.171h-76.305a12.257 12.257 0 0 1-12.344-12.17v-45.922H94.9515v168.062a11.998 11.998 0 0 1 0.518 3.453z m962.8-408.374a259.474 259.474 0 0 1-126.802-33.664A340.96 340.96 0 0 1 865.0005 504.792c-28.313-26.586-55.072-51.79-94.088-59.905a162.107 162.107 0 0 0-106.258 12.603 12.257 12.257 0 1 1-10.445-22.098 186.017 186.017 0 0 1 121.969-14.156c45.749 9.581 76.306 38.325 105.827 66.12a325.767 325.767 0 0 0 61.718 49.115 227.277 227.277 0 0 0 189.9 17.264 12.257 12.257 0 0 1 8.633 22.96 239.966 239.966 0 0 1-83.902 14.416z" fill="#2c2c2c" p-id="1731"></path><path d="M1063.3615 527.58a12.43 12.43 0 0 1-8.632-3.193 12.257 12.257 0 0 1-3.884-10.359l6.388-55.761-41.26-9.927-22.357 52.31a12.257 12.257 0 0 1-18.04 5.35l-70.178-46.698a12.171 12.171 0 0 1-4.402-15.02l26.327-60.422-45.231-25.896-32.974 45.922a12.344 12.344 0 0 1-13.81 4.488l-61.719-20.803a12.344 12.344 0 0 1-8.632-12.861l4.575-44.972-48.08-5.525-7.51 45.059a12.171 12.171 0 1 1-23.392-4.057l8.632-56.539a12.43 12.43 0 0 1 13.466-10.1l71.558 8.201a12.171 12.171 0 0 1 10.704 13.38l-4.661 47.302 43.936 14.674 34.096-47.475a12.171 12.171 0 0 1 15.969-3.54l64.394 36.6a12.344 12.344 0 0 1 5.179 15.537l-26.673 61.373 49.461 32.888 20.975-48.339a12.171 12.171 0 0 1 14.07-6.992l61.805 14.76a12.344 12.344 0 0 1 9.322 13.294l-5.697 49.72 64.394-13.294a12.257 12.257 0 1 1 5.006 23.91l-80.967 17.265z" fill="#2c2c2c" p-id="1732"></path><path d="M659.2175 393.01a12.257 12.257 0 0 1-3.712-23.91l43.16-13.553a12.257 12.257 0 1 1 7.337 23.393l-43.16 13.552a13.12 13.12 0 0 1-3.625 0.518zM1455.8535 1024H12.2575a12.257 12.257 0 1 1 0-24.515h1443.596a12.257 12.257 0 1 1 0 24.515z m-796.636-50.67a12.085 12.085 0 0 1-9.15-4.056 12.257 12.257 0 0 1 0.95-17.264c37.634-33.405 108.157-65.602 171.601-78.291 58.697-11.74 112.215-6.474 164.006-1.381 52.913 5.265 102.892 10.185 158.05-1.813 75.701-16.573 99.439-34.527 126.888-56.02a330.428 330.428 0 0 1 96.505-54.468 12.257 12.257 0 1 1 8.632 22.875 304.964 304.964 0 0 0-90.549 51.014c-28.571 22.011-55.503 43.16-136.642 60.423-58.87 12.862-113.164 7.51-165.646 2.244-49.806-4.92-101.425-9.926-156.496 1.036-59.647 11.912-125.508 41.779-160.122 72.508a11.826 11.826 0 0 1-8.027 3.194z" fill="#2c2c2c" p-id="1733"></path><path d="M707.8145 878.64a12.344 12.344 0 0 1-11.221-7.252l-22.702-51.36a12.257 12.257 0 0 1 8.028-16.486l81.743-25.205a12.344 12.344 0 0 1 9.582 1.036 12.085 12.085 0 0 1 5.87 7.596l10.53 40.224 54.468-13.38-0.605-51.79a12.344 12.344 0 0 1 11.05-12.69l73.198-4.143a11.998 11.998 0 0 1 13.12 11.48l3.28 51.792 50.842 4.747 7.164-49.805a12.171 12.171 0 0 1 12.517-10.445l77.686 2.676a12.257 12.257 0 0 1 11.826 12.084l0.777 49.116 50.41-10.013-13.724-48.598a12.344 12.344 0 0 1 6.3-14.329l64.826-32.283a12.171 12.171 0 0 1 15.97 4.834l24.168 41.433c20.285-17.782 61.977-51.791 88.909-54.467a12.257 12.257 0 0 1 2.762 24.342c-20.112 2.244-63.617 36.858-86.319 58.179a11.998 11.998 0 0 1-10.1 3.194 12.257 12.257 0 0 1-8.63-5.956l-25.897-44.541-45.403 22.702 14.588 51.791a12.516 12.516 0 0 1-1.381 9.754 12.344 12.344 0 0 1-8.028 5.61l-77.687 15.452a12.43 12.43 0 0 1-10.1-2.503 12.257 12.257 0 0 1-4.574-9.323l-0.777-51.791-54.813-1.985-8.027 50.324a12.171 12.171 0 0 1-13.293 10.444l-72.853-6.82a12.257 12.257 0 0 1-11.05-11.48l-3.193-50.41-49.374 2.849 0.518 50.151a12.171 12.171 0 0 1-9.323 11.998l-75.529 18.559a12.257 12.257 0 0 1-14.76-8.632l-10.359-39.534-56.366 17.264 16.228 36.34a10.1 10.1 0 0 1 1.813 3.884 11.912 11.912 0 0 1-8.632 14.934h-0.518a13.552 13.552 0 0 1-2.935 0.431z" fill="#2c2c2c" p-id="1734"></path><path d="M659.2175 905.139a12.257 12.257 0 0 1-5.87-22.96l48.684-26.5a12.257 12.257 0 1 1 11.653 21.493l-49.03 26.5a12.516 12.516 0 0 1-5.437 1.467z" fill="#2c2c2c" p-id="1735"></path></svg>